<svg xmlns="http://www.w3.org/2000/svg" viewBox="0 0 32 32" fill="none">
  <!-- Shield body -->
  <path d="M16 2L4 8v10c0 7.2 5 11.5 12 13 7-1.5 12-5.8 12-13V8L16 2z" fill="#18181b" stroke="#a855f7" stroke-width="1.5"/>
  <!-- Inner glow -->
  <path d="M16 5L7 9.5v8c0 5.5 3.8 9 9 10.2 5.2-1.2 9-4.7 9-10.2v-8L16 5z" fill="none" stroke="#7c3aed" stroke-width="0.5" opacity="0.5"/>
  <!-- Lock icon -->
  <rect x="12" y="14" width="8" height="6" rx="1" fill="#a855f7"/>
  <path d="M14 14v-2a2 2 0 1 1 4 0v2" stroke="#c084fc" stroke-width="1.5" stroke-linecap="round" fill="none"/>
  <!-- Keyhole -->
  <circle cx="16" cy="17" r="1.2" fill="#18181b"/>
  <path d="M16 18v1.5" stroke="#18181b" stroke-width="0.8" stroke-linecap="round"/>
</svg>
